<svg width="270" height="213" viewBox="0 0 270 213" fill="none" xmlns="http://www.w3.org/2000/svg">
<path d="M257.199 167.308C276.761 177.622 265.35 200.734 257.199 211H33.1329C19.1599 163.488 3.29067 63.5225 51.5971 43.7538C111.98 19.0429 134.437 36.5912 179.849 43.7538C225.261 50.9163 174.858 117.528 197.814 137.584C220.769 157.639 232.746 154.416 257.199 167.308Z" fill="#9CE0FF"/>
<path d="M238.361 206.21H51.8107H43.5107C43.5107 146.09 62.5407 158.7 62.9807 180.73C63.7607 174.15 67.3307 172.22 69.4907 172.86C70.9407 173.29 72.1007 178.25 71.8107 186.17C73.6907 178.89 78.8107 168.4 84.1907 167.32C98.4507 164.46 103.661 180.99 104.231 192.69C105.341 191.51 106.661 190.82 108.081 190.82C109.451 190.82 110.731 191.46 111.811 192.57C113.051 185.71 116.891 180.71 121.441 180.71C126.541 180.71 130.751 187.01 131.401 195.16C132.761 192.99 134.871 191.59 137.261 191.59C140.641 191.59 143.501 194.42 144.391 198.28C145.591 197.69 147.041 197.35 148.611 197.35C149.221 197.35 149.811 197.4 150.381 197.5C150.161 196.51 150.041 195.45 150.041 194.33C150.041 189.22 152.541 185.09 155.621 185.09C158.051 185.09 160.121 187.66 160.881 191.25C161.421 189.67 162.231 188.67 163.131 188.67C164.341 188.67 165.381 190.47 165.831 193.03C166.551 192.42 167.371 192.08 168.231 192.08C171.161 192.08 173.531 196.01 173.531 200.85C173.531 200.87 173.531 200.89 173.531 200.91C176.281 196.9 180.401 194.34 185.021 194.34C187.461 194.34 189.771 195.06 191.811 196.33C191.391 191.59 192.311 187.22 194.421 185.2C196.521 183.19 199.261 184.04 201.521 186.98C204.491 176.15 211.071 168.61 218.721 168.61C224.161 168.6 238.361 177.38 238.361 206.21Z" fill="#18853C"/>
<path d="M221.451 24.7202H187.731V206.38H221.451V24.7202Z" fill="#DADFE3"/>
<path d="M187.731 24.7202H60.4111V78.4502H68.9411V206.37H187.731V24.7202Z" fill="#F0F5F9"/>
<path d="M187.731 24.7202H60.4111V30.9602H187.731V24.7202Z" fill="#DFE4E8"/>
<path d="M221.451 24.7202H187.731V30.9602H221.451V24.7202Z" fill="#B8C0C9"/>
<path d="M187.741 201.71H128.341V206.38H187.741V201.71Z" fill="#D0DAE4"/>
<path d="M221.451 201.71H187.731V206.38H221.451V201.71Z" fill="#B8C0C9"/>
<path d="M128.341 78.4502H68.9414V206.38H128.341V78.4502Z" fill="#02629E"/>
<path d="M84.1814 78.4502H68.9414V206.38H84.1814V78.4502Z" fill="#0270AB"/>
<path d="M105.221 78.4502H96.7012V206.38H105.221V78.4502Z" fill="#0270AB"/>
<path d="M128.341 78.4502H68.9414V82.1602H128.341V78.4502Z" fill="#004679"/>
<path opacity="0.1" d="M128.341 110.93L68.9414 171.24V143.54L128.341 83.23V110.93Z" fill="#F0F5F9"/>
<path opacity="0.1" d="M128.341 145.9L68.9414 206.2V191.58L128.341 131.28V145.9Z" fill="#F0F5F9"/>
<path d="M128.341 115.35H65.5312V122.17H128.341V115.35Z" fill="#D0DAE4"/>
<path d="M128.341 161.97H65.5312V168.79H128.341V161.97Z" fill="#D0DAE4"/>
<path d="M201.221 42.8501H192.951V187.84H201.221V42.8501Z" fill="#04486B"/>
<path d="M201.221 53.8501H192.951V56.9801H201.221V53.8501Z" fill="#05568D"/>
<path d="M201.221 83.9199H192.951V87.0499H201.221V83.9199Z" fill="#05568D"/>
<path d="M201.221 113.98H192.951V117.11H201.221V113.98Z" fill="#05568D"/>
<path d="M201.221 144.05H192.951V147.18H201.221V144.05Z" fill="#05568D"/>
<path d="M201.221 174.11H192.951V177.24H201.221V174.11Z" fill="#05568D"/>
<path d="M216.241 42.8501H207.971V187.84H216.241V42.8501Z" fill="#04486B"/>
<path d="M216.241 53.8501H207.971V56.9801H216.241V53.8501Z" fill="#05568D"/>
<path d="M216.241 83.9199H207.971V87.0499H216.241V83.9199Z" fill="#05568D"/>
<path d="M216.241 113.98H207.971V117.11H216.241V113.98Z" fill="#05568D"/>
<path d="M216.241 144.05H207.971V147.18H216.241V144.05Z" fill="#05568D"/>
<path d="M216.241 174.11H207.971V177.24H216.241V174.11Z" fill="#05568D"/>
<path d="M166.201 4.68994H128.341V24.7199H166.201V4.68994Z" fill="#F0F5F9"/>
<path d="M182.4 4.68994H166.2V24.7199H182.4V4.68994Z" fill="#DADFE3"/>
<path d="M166.211 0H124.931V4.69H166.211V0Z" fill="#DFE4E8"/>
<path d="M185.82 0H166.2V4.69H185.82V0Z" fill="#B8C0C9"/>
<path d="M142.461 11.6602H134.501V24.7202H142.461V11.6602Z" fill="#004679"/>
<path d="M152.541 82.1602H134.501V86.7902H152.541V82.1602Z" fill="#0773A4"/>
<path d="M152.541 94.3403H134.501V98.9703H152.541V94.3403Z" fill="#0773A4"/>
<path d="M152.541 106.52H134.501V111.15H152.541V106.52Z" fill="#0773A4"/>
<path d="M152.541 118.7H134.501V123.33H152.541V118.7Z" fill="#0773A4"/>
<path d="M152.541 130.88H134.501V135.51H152.541V130.88Z" fill="#0773A4"/>
<path d="M152.541 143.06H134.501V147.69H152.541V143.06Z" fill="#0773A4"/>
<path d="M152.541 155.24H134.501V159.87H152.541V155.24Z" fill="#0773A4"/>
<path d="M152.541 167.42H134.501V172.05H152.541V167.42Z" fill="#0773A4"/>
<path d="M152.541 179.6H134.501V184.23H152.541V179.6Z" fill="#0773A4"/>
<path d="M152.541 191.78H134.501V196.41H152.541V191.78Z" fill="#0773A4"/>
<path d="M178.101 82.1602H160.061V86.7902H178.101V82.1602Z" fill="#0773A4"/>
<path d="M178.101 94.3403H160.061V98.9703H178.101V94.3403Z" fill="#0773A4"/>
<path d="M178.101 106.52H160.061V111.15H178.101V106.52Z" fill="#0773A4"/>
<path d="M178.101 118.7H160.061V123.33H178.101V118.7Z" fill="#0773A4"/>
<path d="M178.101 130.88H160.061V135.51H178.101V130.88Z" fill="#0773A4"/>
<path d="M178.101 143.06H160.061V147.69H178.101V143.06Z" fill="#0773A4"/>
<path d="M178.101 155.24H160.061V159.87H178.101V155.24Z" fill="#0773A4"/>
<path d="M178.101 167.42H160.061V172.05H178.101V167.42Z" fill="#0773A4"/>
<path d="M178.101 179.6H160.061V184.23H178.101V179.6Z" fill="#0773A4"/>
<path d="M178.101 191.78H160.061V196.41H178.101V191.78Z" fill="#0773A4"/>
<path d="M266.224 212.37H15.6678C13.5771 212.37 11.8799 210.99 11.8799 209.29C11.8799 207.59 13.5771 206.21 15.6678 206.21H266.212C268.303 206.21 270 207.59 270 209.29C270.012 210.99 268.315 212.37 266.224 212.37Z" fill="#1C9A46"/>
<path d="M213.732 200.6C209.92 200.6 206.833 203.11 206.833 206.21H220.62C220.632 203.11 217.545 200.6 213.732 200.6Z" fill="#1C9A46"/>
<path d="M223.079 203.06C220.94 203.06 219.218 204.47 219.218 206.2H226.954C226.954 204.47 225.219 203.06 223.079 203.06Z" fill="#1C9A46"/>
<path d="M230.496 204.63C229.426 204.63 228.565 205.33 228.565 206.2H232.427C232.427 205.33 231.566 204.63 230.496 204.63Z" fill="#1C9A46"/>
<path d="M236.989 203.28C234.997 203.28 233.386 204.59 233.386 206.21H240.593C240.593 204.59 238.982 203.28 236.989 203.28Z" fill="#1C9A46"/>
<path d="M37.9141 202.79C35.6266 202.79 33.7695 204.46 33.7695 206.51H42.0464C42.0587 204.46 40.2016 202.79 37.9141 202.79Z" fill="#1C9A46"/>
<path d="M42.9808 204.29C41.4681 204.29 40.2383 205.29 40.2383 206.52H45.7111C45.7234 205.29 44.4935 204.29 42.9808 204.29Z" fill="#1C9A46"/>
<path d="M48.6504 202.37C46.6949 202.37 45.1084 204.23 45.1084 206.52H52.2046C52.2046 204.23 50.6181 202.37 48.6504 202.37Z" fill="#1C9A46"/>
<path d="M82.6563 200.6C86.4688 200.6 89.5557 203.11 89.5557 206.21H75.7568C75.7568 203.11 78.8437 200.6 82.6563 200.6Z" fill="#1C9A46"/>
<path d="M73.0891 203.4C74.9953 203.4 76.5449 204.66 76.5449 206.21H69.6455C69.6455 204.66 71.1828 203.4 73.0891 203.4Z" fill="#1C9A46"/>
<path d="M176.875 201.57C173.727 201.57 171.169 203.65 171.169 206.21H182.582C182.582 203.65 180.024 201.57 176.875 201.57Z" fill="#1C9A46"/>
<path d="M184.784 203.89C183.21 203.89 181.931 204.93 181.931 206.21H187.637C187.625 204.93 186.358 203.89 184.784 203.89Z" fill="#1C9A46"/>
<rect x="19" y="165" width="6" height="44" rx="1" fill="#1C9A46"/>
<rect y="154" width="45" height="12" rx="1" fill="#F38C45"/>
<g filter="url(#filter0_d_5_210)">
<path d="M12.6696 162V157.908H14.1266C14.6102 157.908 14.9636 158.009 15.1868 158.212C15.41 158.414 15.5216 158.689 15.5216 159.036C15.5216 159.243 15.4617 159.431 15.3418 159.601C15.2219 159.766 15.0525 159.871 14.8334 159.917V159.923C15.0773 159.968 15.2695 160.08 15.41 160.258C15.5547 160.431 15.627 160.63 15.627 160.853C15.627 161.2 15.4968 161.479 15.2364 161.69C14.976 161.897 14.604 162 14.1204 162H12.6696ZM13.1656 161.535H14.2382C14.5317 161.535 14.7487 161.475 14.8892 161.355C15.0339 161.235 15.1062 161.068 15.1062 160.853C15.1062 160.634 15.0339 160.467 14.8892 160.351C14.7487 160.231 14.5317 160.171 14.2382 160.171H13.1656V161.535ZM13.1656 159.706H14.1328C14.7115 159.706 15.0008 159.483 15.0008 159.036C15.0008 158.594 14.7115 158.373 14.1328 158.373H13.1656V159.706ZM16.6272 162V158.9H17.0302L17.0984 159.408C17.1852 159.218 17.3113 159.076 17.4766 158.981C17.6461 158.886 17.8507 158.838 18.0904 158.838C18.1441 158.838 18.202 158.842 18.264 158.85C18.3301 158.859 18.3859 158.875 18.4314 158.9L18.3446 159.353C18.2991 159.336 18.2495 159.324 18.1958 159.315C18.1421 159.307 18.0656 159.303 17.9664 159.303C17.8383 159.303 17.7081 159.34 17.5758 159.415C17.4477 159.489 17.3402 159.603 17.2534 159.756C17.1666 159.904 17.1232 160.095 17.1232 160.326V162H16.6272ZM20.8837 159.997C20.8837 159.766 20.8217 159.588 20.6977 159.464C20.5737 159.336 20.398 159.272 20.1707 159.272C19.9557 159.272 19.7739 159.32 19.6251 159.415C19.4763 159.506 19.3667 159.654 19.2965 159.861L18.8935 159.613C18.9761 159.382 19.1291 159.196 19.3523 159.055C19.5755 158.91 19.8524 158.838 20.1831 158.838C20.4063 158.838 20.6088 158.877 20.7907 158.956C20.9725 159.03 21.1151 159.146 21.2185 159.303C21.3259 159.456 21.3797 159.654 21.3797 159.898V161.399C21.3797 161.547 21.4582 161.622 21.6153 161.622C21.6938 161.622 21.7703 161.611 21.8447 161.591L21.8199 161.981C21.7372 162.023 21.6297 162.043 21.4975 162.043C21.3776 162.043 21.2701 162.021 21.1751 161.975C21.08 161.93 21.0056 161.862 20.9519 161.771C20.8981 161.676 20.8713 161.558 20.8713 161.417V161.355L20.9953 161.374C20.9457 161.535 20.8609 161.667 20.7411 161.771C20.6212 161.87 20.4869 161.944 20.3381 161.994C20.1893 162.039 20.0425 162.062 19.8979 162.062C19.716 162.062 19.5465 162.031 19.3895 161.969C19.2324 161.907 19.1063 161.814 19.0113 161.69C18.9203 161.562 18.8749 161.405 18.8749 161.219C18.8749 160.987 18.9513 160.797 19.1043 160.648C19.2613 160.495 19.4783 160.392 19.7553 160.338L20.9829 160.097V160.506L19.9847 160.71C19.7821 160.752 19.6313 160.81 19.5321 160.884C19.4329 160.958 19.3833 161.062 19.3833 161.194C19.3833 161.322 19.4329 161.428 19.5321 161.51C19.6354 161.589 19.7801 161.628 19.9661 161.628C20.0859 161.628 20.1996 161.614 20.3071 161.585C20.4187 161.552 20.5179 161.504 20.6047 161.442C20.6915 161.376 20.7597 161.295 20.8093 161.2C20.8589 161.101 20.8837 160.985 20.8837 160.853V159.997ZM22.585 162V158.9H23.019L23.0624 159.594L22.9818 159.526C23.0479 159.361 23.1368 159.229 23.2484 159.129C23.36 159.026 23.4881 158.952 23.6328 158.906C23.7816 158.861 23.9345 158.838 24.0916 158.838C24.3148 158.838 24.5173 158.881 24.6992 158.968C24.8811 159.051 25.0257 159.179 25.1332 159.353C25.2448 159.526 25.3006 159.747 25.3006 160.016V162H24.8046V160.19C24.8046 159.847 24.7302 159.609 24.5814 159.477C24.4367 159.34 24.2569 159.272 24.042 159.272C23.8932 159.272 23.7444 159.307 23.5956 159.377C23.4468 159.448 23.3228 159.561 23.2236 159.718C23.1285 159.875 23.081 160.086 23.081 160.351V162H22.585ZM27.7071 158.838C27.922 158.838 28.1101 158.871 28.2713 158.937C28.4366 159.003 28.5792 159.098 28.6991 159.222C28.8189 159.346 28.9161 159.493 28.9905 159.663L28.5193 159.886C28.4531 159.687 28.3519 159.537 28.2155 159.433C28.0832 159.326 27.9096 159.272 27.6947 159.272C27.488 159.272 27.3103 159.32 27.1615 159.415C27.0127 159.506 26.899 159.64 26.8205 159.818C26.7419 159.991 26.7027 160.202 26.7027 160.45C26.7027 160.694 26.7419 160.905 26.8205 161.082C26.899 161.26 27.0127 161.397 27.1615 161.492C27.3103 161.583 27.488 161.628 27.6947 161.628C27.8559 161.628 27.9943 161.603 28.1101 161.554C28.2299 161.504 28.3271 161.432 28.4015 161.337C28.48 161.242 28.5337 161.126 28.5627 160.989L29.0215 161.151C28.9512 161.341 28.8541 161.504 28.7301 161.64C28.6102 161.777 28.4635 161.882 28.2899 161.957C28.1204 162.027 27.9261 162.062 27.7071 162.062C27.4177 162.062 27.1594 161.998 26.9321 161.87C26.7047 161.742 26.527 161.558 26.3989 161.318C26.2707 161.074 26.2067 160.785 26.2067 160.45C26.2067 160.115 26.2707 159.828 26.3989 159.588C26.527 159.344 26.7047 159.158 26.9321 159.03C27.1594 158.902 27.4177 158.838 27.7071 158.838ZM29.893 162V157.474H30.389V159.365C30.4965 159.179 30.6391 159.045 30.8168 158.962C30.9945 158.879 31.1888 158.838 31.3996 158.838C31.6228 158.838 31.8253 158.881 32.0072 158.968C32.1891 159.051 32.3337 159.179 32.4412 159.353C32.5528 159.526 32.6086 159.747 32.6086 160.016V162H32.1126V160.19C32.1126 159.847 32.0382 159.609 31.8894 159.477C31.7447 159.34 31.5649 159.272 31.35 159.272C31.2012 159.272 31.0524 159.307 30.9036 159.377C30.7548 159.448 30.6308 159.563 30.5316 159.725C30.4365 159.882 30.389 160.092 30.389 160.357V162H29.893Z" fill="white"/>
</g>
<defs>
<filter id="filter0_d_5_210" x="11.6699" y="156.474" width="21.9385" height="6.58789" filterUnits="userSpaceOnUse" color-interpolation-filters="sRGB">
<feFlood flood-opacity="0" result="BackgroundImageFix"/>
<feColorMatrix in="SourceAlpha" type="matrix" values="0 0 0 0 0 0 0 0 0 0 0 0 0 0 0 0 0 0 127 0" result="hardAlpha"/>
<feOffset/>
<feGaussianBlur stdDeviation="0.5"/>
<feComposite in2="hardAlpha" operator="out"/>
<feColorMatrix type="matrix" values="0 0 0 0 0 0 0 0 0 0 0 0 0 0 0 0 0 0 0.54 0"/>
<feBlend mode="normal" in2="BackgroundImageFix" result="effect1_dropShadow_5_210"/>
<feBlend mode="normal" in="SourceGraphic" in2="effect1_dropShadow_5_210" result="shape"/>
</filter>
</defs>
</svg>
